<svg width="24" height="24" viewBox="0 0 24 24" fill="none" xmlns="http://www.w3.org/2000/svg">
<path d="M10.0831 14.8248L17.6359 7.2719C17.8172 7.09063 18.0287 7 18.2704 7C18.5121 7 18.7235 7.09063 18.9048 7.2719C19.0861 7.45317 19.1767 7.66465 19.1767 7.90634C19.1767 8.14804 19.0861 8.35952 18.9048 8.54079L10.7175 16.7281C10.5362 16.9094 10.3248 17 10.0831 17C9.84137 17 9.62989 16.9094 9.44862 16.7281L6.09515 13.3746C5.91388 13.1934 5.82324 12.9819 5.82324 12.7402C5.82324 12.4985 5.91388 12.287 6.09515 12.1057C6.27641 11.9245 6.48789 11.8338 6.72959 11.8338C6.97128 11.8338 7.18276 11.9245 7.36403 12.1057L10.0831 14.8248Z" fill="#F48371"/>
</svg>
