<svg width="24" height="24" viewBox="0 0 24 24" fill="none" xmlns="http://www.w3.org/2000/svg">
<path d="M21 17.5C21 18.4283 20.6313 19.3185 19.9749 19.9749C19.3185 20.6313 18.4283 21 17.5 21C16.5717 21 15.6815 20.6313 15.0251 19.9749C14.3687 19.3185 14 18.4283 14 17.5C14 16.5717 14.3687 15.6815 15.0251 15.0251C15.6815 14.3687 16.5717 14 17.5 14C18.4283 14 19.3185 14.3687 19.9749 15.0251C20.6313 15.6815 21 16.5717 21 17.5Z" stroke="#BFBFBF" stroke-width="1.5" stroke-linecap="round" stroke-linejoin="round"/>
<path d="M17.5 14H6.5C5.57174 14 4.6815 14.3687 4.02513 15.0251C3.36875 15.6815 3 16.5717 3 17.5C3 18.4283 3.36875 19.3185 4.02513 19.9749C4.6815 20.6313 5.57174 21 6.5 21H17.5C18.4283 21 19.3185 20.6313 19.9749 19.9749C20.6313 19.3185 21 18.4283 21 17.5C21 16.5717 20.6313 15.6815 19.9749 15.0251C19.3185 14.3687 18.4283 14 17.5 14ZM3 6.5C3 6.95963 3.09053 7.41475 3.26642 7.83939C3.44231 8.26403 3.70012 8.64987 4.02513 8.97487C4.35013 9.29988 4.73597 9.55769 5.16061 9.73358C5.58525 9.90947 6.04037 10 6.5 10C6.95963 10 7.41475 9.90947 7.83939 9.73358C8.26403 9.55769 8.64987 9.29988 8.97487 8.97487C9.29988 8.64987 9.55769 8.26403 9.73358 7.83939C9.90947 7.41475 10 6.95963 10 6.5C10 5.57174 9.63125 4.6815 8.97487 4.02513C8.3185 3.36875 7.42826 3 6.5 3C5.57174 3 4.6815 3.36875 4.02513 4.02513C3.36875 4.6815 3 5.57174 3 6.5Z" stroke="#BFBFBF" stroke-width="1.5" stroke-linecap="round" stroke-linejoin="round"/>
<path d="M6.5 3H17.5C17.9596 3 18.4148 3.09053 18.8394 3.26642C19.264 3.44231 19.6499 3.70012 19.9749 4.02513C20.2999 4.35013 20.5577 4.73597 20.7336 5.16061C20.9095 5.58525 21 6.04037 21 6.5C21 6.95963 20.9095 7.41475 20.7336 7.83939C20.5577 8.26403 20.2999 8.64987 19.9749 8.97487C19.6499 9.29988 19.264 9.55769 18.8394 9.73358C18.4148 9.90947 17.9596 10 17.5 10H6.5C6.04037 10 5.58525 9.90947 5.16061 9.73358C4.73597 9.55769 4.35013 9.29988 4.02513 8.97487C3.70012 8.64987 3.44231 8.26403 3.26642 7.83939C3.09053 7.41475 3 6.95963 3 6.5C3 6.04037 3.09053 5.58525 3.26642 5.16061C3.44231 4.73597 3.70012 4.35013 4.02513 4.02513C4.35013 3.70012 4.73597 3.44231 5.16061 3.26642C5.58525 3.09053 6.04037 3 6.5 3Z" stroke="#BFBFBF" stroke-width="1.5" stroke-linecap="round" stroke-linejoin="round"/>
</svg>
