<svg width="28" height="29" viewBox="0 0 28 29" fill="none" xmlns="http://www.w3.org/2000/svg">
<path d="M2 18H5.16C6.065 18 6.518 18 6.916 18.183C7.314 18.366 7.608 18.71 8.197 19.397L8.803 20.103C9.392 20.79 9.686 21.134 10.084 21.317C10.482 21.5 10.934 21.5 11.84 21.5H12.16C13.065 21.5 13.518 21.5 13.916 21.317C14.314 21.134 14.608 20.79 15.197 20.103L15.803 19.397C16.392 18.71 16.686 18.366 17.084 18.183C17.482 18 17.934 18 18.84 18H22" stroke="#BFBFBF" stroke-width="1.5" stroke-linecap="round"/>
<path d="M22 17C22 21.714 22 24.071 20.535 25.535C19.072 27 16.714 27 12 27C7.286 27 4.929 27 3.464 25.535C2 24.072 2 21.714 2 17C2 12.286 2 9.929 3.464 8.464C4.93 7 7.286 7 12 7C16.714 7 19.071 7 20.535 8.464C21.509 9.438 21.835 10.807 21.945 13" stroke="#BFBFBF" stroke-width="1.5" stroke-linecap="round"/>
<rect x="12" width="16" height="16" rx="6" fill="#333333"/>
<path d="M18.4497 8.36377L17.4185 8.11133L17.8428 4.17969H22.0591V5.27539H18.917L18.7021 7.19287C18.8239 7.12126 18.9922 7.05143 19.207 6.9834C19.4219 6.91178 19.6672 6.87598 19.9429 6.87598C20.3117 6.87598 20.6411 6.93685 20.9312 7.05859C21.2248 7.17676 21.4736 7.35042 21.6777 7.57959C21.8818 7.80518 22.0376 8.08089 22.145 8.40674C22.2524 8.729 22.3062 9.09245 22.3062 9.49707C22.3062 9.85872 22.2524 10.1971 22.145 10.5122C22.0412 10.8273 21.8836 11.1048 21.6724 11.3447C21.4611 11.5846 21.1943 11.7726 20.8721 11.9087C20.5534 12.0412 20.1756 12.1074 19.7388 12.1074C19.4129 12.1074 19.0996 12.0609 18.7988 11.9678C18.5016 11.8711 18.2349 11.7297 17.9985 11.5435C17.7622 11.3537 17.5724 11.1209 17.4292 10.8452C17.286 10.5659 17.2036 10.2454 17.1821 9.88379H18.4497C18.4819 10.138 18.5518 10.3547 18.6592 10.5337C18.7702 10.7091 18.917 10.8434 19.0996 10.9365C19.2822 11.0296 19.4935 11.0762 19.7334 11.0762C19.9518 11.0762 20.1398 11.0386 20.2974 10.9634C20.4549 10.8846 20.5856 10.7736 20.6895 10.6304C20.7969 10.4836 20.8757 10.3117 20.9258 10.1147C20.9795 9.91781 21.0063 9.69938 21.0063 9.45947C21.0063 9.23031 20.9759 9.02083 20.915 8.83105C20.8577 8.64128 20.77 8.47656 20.6519 8.33691C20.5373 8.19727 20.3923 8.08984 20.2168 8.01465C20.0413 7.93587 19.839 7.89648 19.6099 7.89648C19.3019 7.89648 19.0656 7.94124 18.9009 8.03076C18.7397 8.12028 18.5894 8.23128 18.4497 8.36377Z" fill="#F48371"/>
</svg>
