<svg width="139" height="25" viewBox="0 0 139 25" fill="none" xmlns="http://www.w3.org/2000/svg">
<g clip-path="url(#clip0_2143_70)">
<path d="M85.1856 24.7905C77.9766 24.7905 72.6825 19.5718 72.6825 12.4099C72.6543 5.41451 78.0047 0.0847168 85.1012 0.0847168C92.5917 0.0847168 97.9422 5.30346 97.914 12.6042C97.8858 19.6273 92.4791 24.7905 85.1856 24.7905ZM75.1043 12.4099C75.0761 18.2116 79.3846 22.5142 85.2419 22.542C90.9585 22.5697 95.4078 18.2116 95.436 12.5764C95.4641 6.83024 91.0992 2.38874 85.3264 2.33321C79.5536 2.30546 75.1325 6.63593 75.1043 12.4099Z" fill="white"/>
<path d="M42.2412 9.35622C42.2412 6.9134 42.2412 4.44282 42.2412 2C42.2412 1.19498 42.3821 0.473215 43.3958 0.417696C44.4941 0.362178 44.7194 1.11167 44.7194 1.97221C44.7194 7.02442 44.8038 12.0489 44.6631 17.101C44.5504 21.2927 41.2556 24.4018 36.4403 24.9014C32.3289 25.3456 28.6962 24.3462 26.2744 20.7097C25.4296 19.4328 25.148 17.9616 25.148 16.4626C25.1198 11.688 25.148 6.94115 25.148 2.16654C25.148 1.38929 25.2325 0.584245 26.1618 0.445449C27.26 0.278893 27.6261 0.945117 27.6261 1.97221C27.5979 6.63578 27.6261 11.2993 27.6261 15.9907C27.6261 19.5161 29.5691 21.8757 33.061 22.5419C36.919 23.2914 40.4108 21.7924 41.7907 18.8498C42.2131 17.9338 42.2976 16.9901 42.2976 16.0185C42.2412 13.7977 42.2412 11.577 42.2412 9.35622Z" fill="white"/>
<path d="M65.586 2.58303C62.9108 2.58303 60.2637 2.58303 57.5885 2.58303C55.4201 2.58303 53.2799 2.58303 51.1116 2.58303C50.3795 2.58303 49.6191 2.49973 49.5909 1.55591C49.5628 0.556577 50.3232 0.390034 51.1398 0.390034C56.5465 0.390034 61.9251 0.390034 67.3319 0.390034C68.0077 0.390034 68.6554 0.362275 69.0215 1.08402C69.4157 1.86128 68.8807 2.30541 68.4864 2.80508C63.5584 8.85661 58.6022 14.9082 53.6742 20.9597C53.3926 21.3205 53.1109 21.6815 52.6041 22.3199C53.3363 22.3199 53.815 22.3199 54.2937 22.3199C58.6585 22.3199 63.0233 22.3199 67.3882 22.3199C68.1767 22.3199 69.0496 22.3199 69.0778 23.3193C69.106 24.4018 68.233 24.4573 67.3882 24.4573C61.9815 24.4573 56.6029 24.4573 51.1961 24.4573C50.5484 24.4573 49.8444 24.5129 49.5346 23.7356C49.2249 23.0139 49.6473 22.5142 50.0697 21.9868C54.9977 15.9353 59.9539 9.88373 64.8819 3.8322C65.1636 3.52685 65.586 3.24925 65.586 2.58303Z" fill="white"/>
<path d="M10.7299 20.682C12.1661 17.3508 13.4334 14.3806 14.7005 11.4104C16.0804 8.19029 17.4884 4.94245 18.8401 1.69461C19.2062 0.834064 19.7131 0.112336 20.6987 0.528726C21.7969 0.972875 21.4027 1.88892 21.0648 2.66618C18.0797 9.49497 15.0948 16.3238 12.1098 23.1525C11.8282 23.7911 11.631 24.485 10.7299 24.5128C9.8288 24.5128 9.60352 23.7911 9.32191 23.1803C6.30878 16.3238 3.32379 9.43948 0.310654 2.55517C-0.0272678 1.77791 -0.308871 1.00063 0.704895 0.556478C1.66234 0.140089 2.16923 0.750814 2.50715 1.5836C4.90076 7.19098 7.32255 12.7984 9.71616 18.4335C9.99777 19.0165 10.2794 19.6271 10.7299 20.682Z" fill="white"/>
<path d="M102.955 12.4376C102.955 9.2453 102.955 6.05297 102.955 2.88841C102.955 2.41651 102.955 1.97236 103.011 1.50045C103.067 0.861983 103.461 0.47334 104.109 0.44558C104.813 0.417821 105.32 0.778706 105.348 1.50045C105.405 2.49978 105.376 3.52688 105.376 4.55397C105.376 9.9948 105.405 15.4633 105.348 20.9042C105.348 21.9313 105.658 22.2644 106.7 22.2644C110.023 22.2089 113.345 22.2366 116.668 22.2366C117.147 22.2366 117.598 22.2366 118.077 22.3477C118.668 22.4588 118.95 22.8752 118.922 23.458C118.894 24.041 118.556 24.4019 117.964 24.4852C117.683 24.5407 117.401 24.5129 117.119 24.5129C113.036 24.5129 108.953 24.5129 104.898 24.5129C103.18 24.5129 102.955 24.2909 102.955 22.5975C102.983 19.1831 102.983 15.7965 102.955 12.4376C102.983 12.4376 102.983 12.4376 102.955 12.4376Z" fill="white"/>
<path d="M122.976 12.4377C122.976 9.05104 122.976 5.69217 122.976 2.30553C122.976 1.47274 122.892 0.473391 124.103 0.445631C125.37 0.390112 125.426 1.36171 125.426 2.30553C125.426 8.41258 125.455 14.4919 125.398 20.5989C125.398 21.8204 125.679 22.2922 127.004 22.2367C130.411 22.1535 133.847 22.209 137.254 22.209C137.901 22.209 138.633 22.1812 138.859 22.9862C139.112 23.9301 138.633 24.4297 137.704 24.4297C133.198 24.4575 128.693 24.4575 124.215 24.4297C123.146 24.4297 122.976 23.6802 122.976 22.8196C122.976 19.3775 122.976 15.9076 122.976 12.4377Z" fill="white"/>
</g>
<defs>
<clipPath id="clip0_2143_70">
<rect width="139" height="25" fill="white"/>
</clipPath>
</defs>
</svg>
