<svg width="24" height="24" viewBox="0 0 24 24" fill="none" xmlns="http://www.w3.org/2000/svg">
<path d="M12 13.55C11.8667 13.55 11.7458 13.5375 11.6375 13.5125C11.5292 13.4875 11.4167 13.4416 11.3 13.375L2.25 8.52495C2.11667 8.44162 2.02083 8.34578 1.9625 8.23745C1.90417 8.12912 1.875 8.00828 1.875 7.87495C1.875 7.74162 1.90417 7.62078 1.9625 7.51245C2.02083 7.40412 2.11667 7.30828 2.25 7.22495L11.3 2.37495C11.4167 2.30828 11.5292 2.26245 11.6375 2.23745C11.7458 2.21245 11.8667 2.19995 12 2.19995C12.1333 2.19995 12.2542 2.21245 12.3625 2.23745C12.4708 2.26245 12.5833 2.30828 12.7 2.37495L21.75 7.22495C21.8833 7.30828 21.9833 7.40412 22.05 7.51245C22.1167 7.62078 22.15 7.74162 22.15 7.87495C22.15 8.00828 22.1167 8.12912 22.05 8.23745C21.9833 8.34578 21.8833 8.44162 21.75 8.52495L12.7 13.375C12.5833 13.4416 12.4708 13.4875 12.3625 13.5125C12.2542 13.5375 12.1333 13.55 12 13.55ZM12 12.025L19.875 7.87495L12 3.72495L4.15 7.87495L12 12.025ZM12 16.175L20.475 11.65C20.5083 11.6333 20.625 11.6083 20.825 11.575C21.025 11.575 21.2 11.6458 21.35 11.7875C21.5 11.9291 21.575 12.1083 21.575 12.325C21.575 12.4583 21.5417 12.5791 21.475 12.6875C21.4083 12.7958 21.3083 12.8916 21.175 12.975L12.7 17.5C12.5833 17.5666 12.4708 17.6125 12.3625 17.6375C12.2542 17.6625 12.1333 17.675 12 17.675C11.8667 17.675 11.7458 17.6625 11.6375 17.6375C11.5292 17.6125 11.4167 17.5666 11.3 17.5L2.85 12.975C2.71667 12.8916 2.61667 12.7958 2.55 12.6875C2.48333 12.5791 2.45 12.4583 2.45 12.325C2.45 12.1083 2.525 11.9291 2.675 11.7875C2.825 11.6458 3 11.575 3.2 11.575C3.26667 11.575 3.32917 11.5833 3.3875 11.6C3.44583 11.6166 3.5 11.6416 3.55 11.675L12 16.175ZM12 20.3L20.475 15.775C20.5083 15.7583 20.625 15.7333 20.825 15.7C21.025 15.7 21.2 15.7708 21.35 15.9125C21.5 16.0541 21.575 16.2333 21.575 16.45C21.575 16.5833 21.5417 16.7041 21.475 16.8125C21.4083 16.9208 21.3083 17.0166 21.175 17.1L12.7 21.625C12.5833 21.6916 12.4708 21.7375 12.3625 21.7625C12.2542 21.7875 12.1333 21.8 12 21.8C11.8667 21.8 11.7458 21.7875 11.6375 21.7625C11.5292 21.7375 11.4167 21.6916 11.3 21.625L2.85 17.1C2.71667 17.0166 2.61667 16.9208 2.55 16.8125C2.48333 16.7041 2.45 16.5833 2.45 16.45C2.45 16.2333 2.525 16.0541 2.675 15.9125C2.825 15.7708 3 15.7 3.2 15.7C3.26667 15.7 3.32917 15.7083 3.3875 15.725C3.44583 15.7416 3.5 15.7666 3.55 15.8L12 20.3Z" fill="#BFBFBF"/>
</svg>
