<svg width="24" height="24" viewBox="0 0 24 24" fill="none" xmlns="http://www.w3.org/2000/svg">
<path d="M12.0058 13.2892L15.8829 9.19712C16.0143 9.05841 16.1676 8.9929 16.3429 9.00061C16.5181 9.00831 16.6714 9.08153 16.8029 9.22024C16.9343 9.35895 17 9.52464 17 9.7173C17 9.90996 16.9343 10.0756 16.8029 10.2144L12.4658 14.7919C12.3927 14.869 12.3197 14.9229 12.2467 14.9538C12.1737 14.9846 12.0934 15 12.0058 15C11.9181 15 11.8378 14.9846 11.7648 14.9538C11.6918 14.9229 11.6188 14.869 11.5458 14.7919L7.18676 10.1912C7.05534 10.0525 6.99327 9.89069 7.00058 9.70574C7.00788 9.52079 7.07724 9.35895 7.20867 9.22024C7.3401 9.08153 7.49708 9.01217 7.67962 9.01217C7.86215 9.01217 8.01914 9.08153 8.15056 9.22024L12.0058 13.2892Z" fill="#BFBFBF"/>
</svg>
