<svg width="32" height="32" viewBox="0 0 32 32" fill="none" xmlns="http://www.w3.org/2000/svg">
<rect width="32" height="32" rx="12" fill="#333333"/>
<g clip-path="url(#clip0_2201_13)">
<path d="M25.6846 13.2995C25.9119 12.8622 26.0971 12.2683 25.9 11.6623C25.6709 10.9602 25.0393 10.4936 24.0199 10.2773L17.5556 8.90225L10.9547 5.37125C10.8832 5.33275 10.2406 5 9.53844 5C9.01503 5 8.56403 5.1815 8.23311 5.52342C7.92419 5.84333 7.73903 6.28792 7.68036 6.84708C7.61963 6.84323 7.55879 6.8414 7.49794 6.84158C6.49969 6.84158 5.98728 7.25958 5.73244 7.61067C5.33828 8.15333 5.28878 8.88758 5.58486 9.79417L8.01311 17.2357L8.24319 23.6826C8.28353 24.8028 8.90228 26.0072 10.1664 26.0082C10.4084 26.0082 10.6589 25.9623 10.918 25.8707C11.2187 26.3803 11.7614 27 12.6267 27C13.2372 27 13.8404 26.6728 14.4197 26.0256L19.1039 20.8033L25.3216 16.8772C25.4564 16.7911 26.6453 16.0064 26.6031 14.834C26.5829 14.2455 26.2713 13.7322 25.6846 13.2995ZM11.7797 23.4855L9.64569 16.946L9.35602 8.83625L16.9882 10.4597L23.1949 13.7798L18.0341 19.5356L11.7797 23.4855ZM23.6789 11.8842C24.1785 11.9905 24.3289 12.1399 24.3389 12.1711C24.3582 12.2288 24.3234 12.3507 24.2592 12.4864L22.7714 11.6908L23.6789 11.8842ZM9.53844 6.64267C9.78503 6.64267 10.0949 6.77558 10.1801 6.81958L11.7733 7.67117L9.30469 7.14592C9.31661 6.84983 9.37803 6.70225 9.41469 6.66375C9.42569 6.65367 9.47153 6.64267 9.53844 6.64267ZM7.14594 9.2845C6.96719 8.73908 7.06069 8.57592 7.06161 8.575C7.07903 8.55117 7.21469 8.48425 7.49794 8.48425C7.57494 8.48486 7.64247 8.48822 7.70053 8.49433L7.80044 11.2902L7.14594 9.2845ZM9.88494 23.623L9.85836 22.8915L10.3295 24.3343C10.2767 24.3517 10.2219 24.3622 10.1664 24.3655C10.0325 24.3655 9.89778 23.9072 9.88494 23.623ZM13.1978 24.9283C12.8183 25.3528 12.6294 25.3573 12.6276 25.3573C12.5744 25.3573 12.458 25.2363 12.3517 25.0668L14.0182 24.0144L13.1978 24.9283ZM24.4453 15.4876L23.1207 16.3245L24.6744 14.592C24.9027 14.7515 24.9614 14.8652 24.9623 14.8936C24.9678 15.0155 24.6992 15.3226 24.4453 15.4876Z" fill="#BFBFBF"/>
</g>
<defs>
<clipPath id="clip0_2201_13">
<rect width="22" height="22" fill="white" transform="translate(5 5)"/>
</clipPath>
</defs>
</svg>
