<svg width="24" height="24" viewBox="0 0 24 24" fill="none" xmlns="http://www.w3.org/2000/svg">
<path d="M11.9965 20C11.6655 20 11.3834 19.8822 11.15 19.6465C10.9167 19.4108 10.8 19.1275 10.8 18.7965C10.8 18.4655 10.9179 18.1833 11.1535 17.95C11.3892 17.7167 11.6725 17.6 12.0035 17.6C12.3345 17.6 12.6167 17.7178 12.85 17.9535C13.0834 18.1892 13.2 18.4725 13.2 18.8035C13.2 19.1345 13.0822 19.4167 12.8465 19.65C12.6109 19.8833 12.3275 20 11.9965 20ZM11.9965 13.2C11.6655 13.2 11.3834 13.0822 11.15 12.8465C10.9167 12.6108 10.8 12.3275 10.8 11.9965C10.8 11.6655 10.9179 11.3833 11.1535 11.15C11.3892 10.9167 11.6725 10.8 12.0035 10.8C12.3345 10.8 12.6167 10.9178 12.85 11.1535C13.0834 11.3892 13.2 11.6725 13.2 12.0035C13.2 12.3345 13.0822 12.6167 12.8465 12.85C12.6109 13.0833 12.3275 13.2 11.9965 13.2ZM11.9965 6.4C11.6655 6.4 11.3834 6.28217 11.15 6.0465C10.9167 5.81083 10.8 5.5275 10.8 5.1965C10.8 4.8655 10.9179 4.58333 11.1535 4.35C11.3892 4.11667 11.6725 4 12.0035 4C12.3345 4 12.6167 4.11783 12.85 4.3535C13.0834 4.58917 13.2 4.8725 13.2 5.2035C13.2 5.5345 13.0822 5.81667 12.8465 6.05C12.6109 6.28333 12.3275 6.4 11.9965 6.4Z" fill="#BFBFBF"/>
</svg>
