<svg width="24" height="24" viewBox="0 0 24 24" fill="none" xmlns="http://www.w3.org/2000/svg">
<path d="M5.50005 12.075C5.50005 12.9916 5.68755 13.8666 6.06255 14.7C6.43755 15.5333 6.97505 16.2416 7.67505 16.825L8.42505 17.35V15C8.42505 14.7833 8.49589 14.6041 8.63755 14.4625C8.77922 14.3208 8.95839 14.25 9.17505 14.25C9.39172 14.25 9.57089 14.3208 9.71255 14.4625C9.85422 14.6041 9.92505 14.7833 9.92505 15V19.25C9.92505 19.4666 9.85422 19.6458 9.71255 19.7875C9.57089 19.9291 9.39172 20 9.17505 20H4.92505C4.70838 20 4.52922 19.9291 4.38755 19.7875C4.24589 19.6458 4.17505 19.4666 4.17505 19.25C4.17505 19.0333 4.24589 18.8541 4.38755 18.7125C4.52922 18.5708 4.70838 18.5 4.92505 18.5H7.42505L7.05005 18.2C6.10005 17.45 5.35005 16.5416 4.80005 15.475C4.25005 14.4083 3.98339 13.275 4.00005 12.075C4.01672 11.2916 4.13338 10.525 4.35005 9.77495C4.56672 9.02495 4.89172 8.33328 5.32505 7.69995L1.92505 4.29995C1.79172 4.16662 1.72922 3.99578 1.73755 3.78745C1.74589 3.57912 1.81672 3.40828 1.95005 3.27495C2.08339 3.14162 2.25422 3.07495 2.46255 3.07495C2.67089 3.07495 2.84172 3.14162 2.97505 3.27495L20.7501 21.075C20.8834 21.2083 20.9501 21.375 20.9501 21.575C20.9501 21.775 20.8834 21.9416 20.7501 22.075C20.6167 22.2083 20.4459 22.275 20.2376 22.275C20.0292 22.275 19.8584 22.2083 19.7251 22.075L16.3251 18.7C16.1251 18.8333 15.9209 18.9541 15.7126 19.0625C15.5042 19.1708 15.2917 19.2666 15.0751 19.35C14.8751 19.4333 14.6834 19.4291 14.5001 19.3375C14.3167 19.2458 14.1917 19.1 14.1251 18.9C14.0584 18.7 14.0751 18.5041 14.1751 18.3125C14.2751 18.1208 14.4251 17.9833 14.6251 17.9C14.8084 17.8166 14.9917 17.7208 15.1751 17.6125C15.3584 17.5041 15.5417 17.3916 15.7251 17.275L15.4501 17.825L6.40005 8.77495C6.10005 9.27495 5.87505 9.80412 5.72505 10.3625C5.57505 10.9208 5.50005 11.4916 5.50005 12.075ZM18.4251 16.7L17.3751 15.65C17.7251 15.0833 18.0001 14.4875 18.2001 13.8625C18.4001 13.2375 18.5001 12.5916 18.5001 11.925C18.5001 11.025 18.3042 10.1875 17.9126 9.41245C17.5209 8.63745 17.0084 7.93328 16.3751 7.29995L15.6501 6.64995V8.99995C15.6501 9.21662 15.5792 9.39578 15.4376 9.53745C15.2959 9.67912 15.1167 9.74995 14.9001 9.74995C14.6834 9.74995 14.5042 9.67912 14.3626 9.53745C14.2209 9.39578 14.1501 9.21662 14.1501 8.99995V4.74995C14.1501 4.53328 14.2209 4.35412 14.3626 4.21245C14.5042 4.07078 14.6834 3.99995 14.9001 3.99995H19.1501C19.3667 3.99995 19.5459 4.07078 19.6876 4.21245C19.8292 4.35412 19.9001 4.53328 19.9001 4.74995C19.9001 4.96662 19.8292 5.14578 19.6876 5.28745C19.5459 5.42912 19.3667 5.49995 19.1501 5.49995H16.6251L17.0001 5.84995C17.8667 6.64995 18.5834 7.56662 19.1501 8.59995C19.7167 9.63328 20.0001 10.7416 20.0001 11.925C20.0001 12.7916 19.8667 13.6291 19.6001 14.4375C19.3334 15.2458 18.9417 16 18.4251 16.7ZM8.35005 6.62495L7.32505 5.59995C7.57505 5.41662 7.83755 5.24578 8.11255 5.08745C8.38755 4.92912 8.66672 4.78328 8.95005 4.64995C9.13339 4.56662 9.32089 4.57078 9.51255 4.66245C9.70422 4.75412 9.83339 4.89995 9.90005 5.09995C9.96672 5.28328 9.94172 5.46662 9.82505 5.64995C9.70839 5.83328 9.55839 5.96662 9.37505 6.04995C9.19172 6.13328 9.01672 6.22078 8.85005 6.31245C8.68339 6.40412 8.51672 6.50828 8.35005 6.62495Z" fill="white"/>
</svg>
